<svg width="37" height="29" viewBox="0 0 37 29" fill="none" xmlns="http://www.w3.org/2000/svg">
<path d="M5 10.3333C4.52778 10.3333 4.13194 10.1736 3.8125 9.85417C3.49306 9.53472 3.33333 9.13889 3.33333 8.66667C3.33333 8.19444 3.49306 7.79861 3.8125 7.47917C4.13194 7.15972 4.52778 7 5 7H10C10.9167 7 11.7014 7.32639 12.3542 7.97917C13.0069 8.63194 13.3333 9.41667 13.3333 10.3333V10.3333H5V10.3333M8.33333 25.3333C9.72222 25.3333 10.9028 24.8472 11.875 23.875C12.8472 22.9028 13.3333 21.7222 13.3333 20.3333C13.3333 18.9444 12.8472 17.7639 11.875 16.7917C10.9028 15.8194 9.72222 15.3333 8.33333 15.3333C6.94444 15.3333 5.76389 15.8194 4.79167 16.7917C3.81944 17.7639 3.33333 18.9444 3.33333 20.3333C3.33333 21.7222 3.81944 22.9028 4.79167 23.875C5.76389 24.8472 6.94444 25.3333 8.33333 25.3333V25.3333M30.8333 25.3333C31.5278 25.3333 32.1181 25.0903 32.6042 24.6042C33.0903 24.1181 33.3333 23.5278 33.3333 22.8333C33.3333 22.1389 33.0903 21.5486 32.6042 21.0625C32.1181 20.5764 31.5278 20.3333 30.8333 20.3333C30.1389 20.3333 29.5486 20.5764 29.0625 21.0625C28.5764 21.5486 28.3333 22.1389 28.3333 22.8333C28.3333 23.5278 28.5764 24.1181 29.0625 24.6042C29.5486 25.0903 30.1389 25.3333 30.8333 25.3333V25.3333M8.33333 22.8333C7.63889 22.8333 7.04861 22.5903 6.5625 22.1042C6.07639 21.6181 5.83333 21.0278 5.83333 20.3333C5.83333 19.6389 6.07639 19.0486 6.5625 18.5625C7.04861 18.0764 7.63889 17.8333 8.33333 17.8333C9.02778 17.8333 9.61806 18.0764 10.1042 18.5625C10.5903 19.0486 10.8333 19.6389 10.8333 20.3333C10.8333 21.0278 10.5903 21.6181 10.1042 22.1042C9.61806 22.5903 9.02778 22.8333 8.33333 22.8333V22.8333M31.6667 17.0417C32.3889 17.1806 32.9861 17.3681 33.4583 17.6042C33.9306 17.8403 34.4444 18.2222 35 18.75V8.66667C35 7.75 34.6736 6.96528 34.0208 6.3125C33.3681 5.65972 32.5833 5.33333 31.6667 5.33333H21.1667L19.4167 3.5L21.75 1.16667L20.5833 0L14.6667 5.91667L15.9167 7.08333L18.25 4.75L20 6.5V10.3333C20 11.25 19.6736 12.0347 19.0208 12.6875C18.3681 13.3403 17.5833 13.6667 16.6667 13.6667H13.2917C13.9306 14.1389 14.4444 14.625 14.8333 15.125C15.2222 15.625 15.6111 16.25 16 17H16.6667C18.5 17 20.0694 16.3472 21.375 15.0417C22.6806 13.7361 23.3333 12.1667 23.3333 10.3333V8.66667H31.6667V8.66667V8.66667V17.0417V17.0417M25.0417 22C25.2083 21.25 25.4097 20.6458 25.6458 20.1875C25.8819 19.7292 26.25 19.2222 26.75 18.6667H16.5C16.6111 19.3056 16.6667 19.8611 16.6667 20.3333C16.6667 20.8056 16.6111 21.3611 16.5 22H25.0417V22M30.8333 28.6667C29.2222 28.6667 27.8472 28.0972 26.7083 26.9583C25.5694 25.8194 25 24.4444 25 22.8333C25 21.2222 25.5694 19.8472 26.7083 18.7083C27.8472 17.5694 29.2222 17 30.8333 17C32.4444 17 33.8194 17.5694 34.9583 18.7083C36.0972 19.8472 36.6667 21.2222 36.6667 22.8333C36.6667 24.4444 36.0972 25.8194 34.9583 26.9583C33.8194 28.0972 32.4444 28.6667 30.8333 28.6667V28.6667M8.33333 28.6667C6.02778 28.6667 4.0625 27.8542 2.4375 26.2292C0.8125 24.6042 0 22.6389 0 20.3333C0 18.0278 0.8125 16.0625 2.4375 14.4375C4.0625 12.8125 6.02778 12 8.33333 12C10.6389 12 12.6042 12.8125 14.2292 14.4375C15.8542 16.0625 16.6667 18.0278 16.6667 20.3333C16.6667 22.6389 15.8542 24.6042 14.2292 26.2292C12.6042 27.8542 10.6389 28.6667 8.33333 28.6667V28.6667M24.7083 13.6667V13.6667V13.6667V13.6667V13.6667V13.6667V13.6667V13.6667V13.6667V13.6667V13.6667V13.6667V13.6667V13.6667V13.6667" fill="white"/>
</svg>
