<svg width="21" height="20" viewBox="0 0 21 20" fill="none" xmlns="http://www.w3.org/2000/svg">
<path d="M7.29998 20L6.89998 16.8C6.68332 16.7167 6.47915 16.6167 6.28748 16.5C6.09582 16.3833 5.90832 16.2583 5.72498 16.125L2.74998 17.375L-1.52588e-05 12.625L2.57498 10.675C2.55832 10.5583 2.54998 10.4458 2.54998 10.3375C2.54998 10.2292 2.54998 10.1167 2.54998 10C2.54998 9.88333 2.54998 9.77083 2.54998 9.6625C2.54998 9.55417 2.55832 9.44167 2.57498 9.325L-1.52588e-05 7.375L2.74998 2.625L5.72498 3.875C5.90832 3.74167 6.09998 3.61667 6.29998 3.5C6.49998 3.38333 6.69998 3.28333 6.89998 3.2L7.29998 0H12.8L13.2 3.2C13.4167 3.28333 13.6208 3.38333 13.8125 3.5C14.0042 3.61667 14.1917 3.74167 14.375 3.875L17.35 2.625L20.1 7.375L17.525 9.325C17.5417 9.44167 17.55 9.55417 17.55 9.6625C17.55 9.77083 17.55 9.88333 17.55 10C17.55 10.1167 17.55 10.2292 17.55 10.3375C17.55 10.4458 17.5333 10.5583 17.5 10.675L20.075 12.625L17.325 17.375L14.375 16.125C14.1917 16.2583 14 16.3833 13.8 16.5C13.6 16.6167 13.4 16.7167 13.2 16.8L12.8 20H7.29998V20M9.04998 18H11.025L11.375 15.35C11.8917 15.2167 12.3708 15.0208 12.8125 14.7625C13.2542 14.5042 13.6583 14.1917 14.025 13.825L16.5 14.85L17.475 13.15L15.325 11.525C15.4083 11.2917 15.4667 11.0458 15.5 10.7875C15.5333 10.5292 15.55 10.2667 15.55 10C15.55 9.73333 15.5333 9.47083 15.5 9.2125C15.4667 8.95417 15.4083 8.70833 15.325 8.475L17.475 6.85L16.5 5.15L14.025 6.2C13.6583 5.81667 13.2542 5.49583 12.8125 5.2375C12.3708 4.97917 11.8917 4.78333 11.375 4.65L11.05 2H9.07498L8.72499 4.65C8.20832 4.78333 7.72915 4.97917 7.28748 5.2375C6.84582 5.49583 6.44165 5.80833 6.07498 6.175L3.59998 5.15L2.62498 6.85L4.77498 8.45C4.69165 8.7 4.63332 8.95 4.59998 9.2C4.56665 9.45 4.54998 9.71667 4.54998 10C4.54998 10.2667 4.56665 10.525 4.59998 10.775C4.63332 11.025 4.69165 11.275 4.77498 11.525L2.62498 13.15L3.59998 14.85L6.07498 13.8C6.44165 14.1833 6.84582 14.5042 7.28748 14.7625C7.72915 15.0208 8.20832 15.2167 8.72499 15.35L9.04998 18V18M10.1 13.5C11.0667 13.5 11.8917 13.1583 12.575 12.475C13.2583 11.7917 13.6 10.9667 13.6 10C13.6 9.03333 13.2583 8.20833 12.575 7.525C11.8917 6.84167 11.0667 6.5 10.1 6.5C9.11665 6.5 8.28748 6.84167 7.61248 7.525C6.93748 8.20833 6.59998 9.03333 6.59998 10C6.59998 10.9667 6.93748 11.7917 7.61248 12.475C8.28748 13.1583 9.11665 13.5 10.1 13.5V13.5M10.05 10V10V10V10V10V10V10V10V10V10V10V10V10V10V10V10V10V10V10V10V10V10V10V10V10V10V10V10V10V10V10V10V10V10V10V10" fill="#414844"/>
</svg>
